<svg width="7" height="16" viewBox="0 0 7 16" fill="none" xmlns="http://www.w3.org/2000/svg">
<path d="M1.88235 0.941176C1.88235 0.421379 1.46097 0 0.941176 0C0.421379 0 0 0.421379 0 0.941176C0 1.46097 0.421379 1.88235 0.941176 1.88235C1.46097 1.88235 1.88235 1.46097 1.88235 0.941176Z" fill="#EDEEF0"/>
<path d="M1.88235 5.64706C1.88235 5.12726 1.46097 4.70588 0.941176 4.70588C0.421379 4.70588 0 5.12726 0 5.64706C0 6.16686 0.421379 6.58824 0.941176 6.58824C1.46097 6.58824 1.88235 6.16686 1.88235 5.64706Z" fill="#EDEEF0"/>
<path d="M1.88235 10.3529C1.88235 9.83314 1.46097 9.41177 0.941176 9.41177C0.421379 9.41177 0 9.83314 0 10.3529C0 10.8727 0.421379 11.2941 0.941176 11.2941C1.46097 11.2941 1.88235 10.8727 1.88235 10.3529Z" fill="#EDEEF0"/>
<path d="M1.88235 15.0588C1.88235 14.539 1.46097 14.1176 0.941176 14.1176C0.421379 14.1176 0 14.539 0 15.0588C0 15.5786 0.421379 16 0.941176 16C1.46097 16 1.88235 15.5786 1.88235 15.0588Z" fill="#EDEEF0"/>
<path d="M6.58824 0.941176C6.58824 0.421379 6.16686 0 5.64706 0C5.12726 0 4.70588 0.421379 4.70588 0.941176C4.70588 1.46097 5.12726 1.88235 5.64706 1.88235C6.16686 1.88235 6.58824 1.46097 6.58824 0.941176Z" fill="#EDEEF0"/>
<path d="M6.58824 5.64706C6.58824 5.12726 6.16686 4.70588 5.64706 4.70588C5.12726 4.70588 4.70588 5.12726 4.70588 5.64706C4.70588 6.16686 5.12726 6.58824 5.64706 6.58824C6.16686 6.58824 6.58824 6.16686 6.58824 5.64706Z" fill="#EDEEF0"/>
<path d="M6.58824 10.3529C6.58824 9.83314 6.16686 9.41177 5.64706 9.41177C5.12726 9.41177 4.70588 9.83314 4.70588 10.3529C4.70588 10.8727 5.12726 11.2941 5.64706 11.2941C6.16686 11.2941 6.58824 10.8727 6.58824 10.3529Z" fill="#EDEEF0"/>
<path d="M6.58824 15.0588C6.58824 14.539 6.16686 14.1176 5.64706 14.1176C5.12726 14.1176 4.70588 14.539 4.70588 15.0588C4.70588 15.5786 5.12726 16 5.64706 16C6.16686 16 6.58824 15.5786 6.58824 15.0588Z" fill="#EDEEF0"/>
</svg>
