<svg width="18" height="18" viewBox="0 0 18 18" fill="none" xmlns="http://www.w3.org/2000/svg">
<path d="M13.8245 9.83317V15.6665H2.15788V3.99984H6.34121C6.38288 3.40817 6.52454 2.84984 6.74121 2.33317H2.15788C1.24121 2.33317 0.491211 3.08317 0.491211 3.99984V15.6665C0.491211 16.5832 1.24121 17.3332 2.15788 17.3332H13.8245C14.7412 17.3332 15.4912 16.5832 15.4912 15.6665V11.4998L13.8245 9.83317ZM12.5745 13.9998H3.40788L5.69954 11.0582L7.33288 13.0248L9.62454 10.0748L12.5745 13.9998ZM14.9079 6.40817C15.2745 5.82484 15.4912 5.14984 15.4912 4.4165C15.4912 2.3415 13.8162 0.666504 11.7412 0.666504C9.66621 0.666504 7.99121 2.3415 7.99121 4.4165C7.99121 6.4915 9.66621 8.1665 11.7329 8.1665C12.4662 8.1665 13.1495 7.94984 13.7245 7.58317L16.3245 10.1832L17.5079 8.99984L14.9079 6.40817ZM11.7412 6.49984C10.5912 6.49984 9.65788 5.5665 9.65788 4.4165C9.65788 3.2665 10.5912 2.33317 11.7412 2.33317C12.8912 2.33317 13.8245 3.2665 13.8245 4.4165C13.8245 5.5665 12.8912 6.49984 11.7412 6.49984Z" fill="#777B84"/>
</svg>
