<svg width="36" height="37" viewBox="0 0 36 37" fill="none" xmlns="http://www.w3.org/2000/svg">
<g filter="url(#filter0_dii_9329_404)">
<rect x="2" y="2" width="32" height="32" rx="16" fill="#003362" shape-rendering="crispEdges"/>
<path d="M16.2885 16.0348C16.1924 15.7332 16.0632 15.4631 15.9007 15.2244C15.7417 14.9825 15.5511 14.777 15.329 14.608C15.1069 14.4356 14.8534 14.3047 14.5684 14.2152C14.2866 14.1257 13.9767 14.081 13.6387 14.081C13.0653 14.081 12.5482 14.2285 12.0875 14.5234C11.6268 14.8184 11.2623 15.2509 10.9938 15.821C10.7286 16.3878 10.5961 17.0821 10.5961 17.9041C10.5961 18.7294 10.7303 19.4271 10.9988 19.9972C11.2672 20.5672 11.6351 20.9998 12.1025 21.2947C12.5698 21.5897 13.1017 21.7372 13.6983 21.7372C14.2518 21.7372 14.7341 21.6245 15.1451 21.3991C15.5594 21.1738 15.8792 20.8556 16.1046 20.4446C16.3333 20.0303 16.4476 19.5431 16.4476 18.983L16.8453 19.0575H13.932V17.7898H17.9341V18.9482C17.9341 19.8033 17.7518 20.5457 17.3873 21.1754C17.026 21.8018 16.5255 22.2857 15.8858 22.6271C15.2495 22.9685 14.5203 23.1392 13.6983 23.1392C12.7769 23.1392 11.9682 22.9271 11.2722 22.5028C10.5795 22.0786 10.0392 21.477 9.65146 20.6982C9.26367 19.916 9.06978 18.9879 9.06978 17.9141C9.06978 17.102 9.18247 16.3729 9.40785 15.7266C9.63323 15.0803 9.94975 14.5317 10.3574 14.081C10.7684 13.6269 11.2507 13.2805 11.8042 13.0419C12.361 12.8 12.9692 12.679 13.6287 12.679C14.1789 12.679 14.691 12.7602 15.165 12.9226C15.6422 13.085 16.0665 13.3153 16.4377 13.6136C16.8122 13.9119 17.1221 14.2666 17.3674 14.6776C17.6126 15.0852 17.7784 15.5376 17.8645 16.0348H16.2885ZM19.8842 23V12.8182H23.5135C24.3056 12.8182 24.9619 12.9624 25.4822 13.2507C26.0026 13.5391 26.392 13.9335 26.6506 14.4339C26.9091 14.9311 27.0384 15.4912 27.0384 16.1143C27.0384 16.7408 26.9074 17.3042 26.6456 17.8047C26.3871 18.3018 25.996 18.6963 25.4723 18.9879C24.9519 19.2763 24.2973 19.4205 23.5085 19.4205H21.0128V18.1179H23.3693C23.8698 18.1179 24.2758 18.0317 24.5874 17.8594C24.8989 17.6837 25.1276 17.4451 25.2734 17.1435C25.4193 16.8419 25.4922 16.4988 25.4922 16.1143C25.4922 15.7299 25.4193 15.3885 25.2734 15.0902C25.1276 14.7919 24.8973 14.5582 24.5824 14.3892C24.2708 14.2202 23.8598 14.1357 23.3494 14.1357H21.4205V23H19.8842Z" fill="#3B9EFF"/>
</g>
<defs>
<filter id="filter0_dii_9329_404" x="0" y="0.6" width="36" height="36" filterUnits="userSpaceOnUse" color-interpolation-filters="sRGB">
<feFlood flood-opacity="0" result="BackgroundImageFix"/>
<feColorMatrix in="SourceAlpha" type="matrix" values="0 0 0 0 0 0 0 0 0 0 0 0 0 0 0 0 0 0 127 0" result="hardAlpha"/>
<feOffset dy="0.6"/>
<feGaussianBlur stdDeviation="1"/>
<feComposite in2="hardAlpha" operator="out"/>
<feColorMatrix type="matrix" values="0 0 0 0 0 0 0 0 0 0 0 0 0 0 0 0 0 0 0.12 0"/>
<feBlend mode="normal" in2="BackgroundImageFix" result="effect1_dropShadow_9329_404"/>
<feBlend mode="normal" in="SourceGraphic" in2="effect1_dropShadow_9329_404" result="shape"/>
<feColorMatrix in="SourceAlpha" type="matrix" values="0 0 0 0 0 0 0 0 0 0 0 0 0 0 0 0 0 0 127 0" result="hardAlpha"/>
<feOffset dy="0.5"/>
<feComposite in2="hardAlpha" operator="arithmetic" k2="-1" k3="1"/>
<feColorMatrix type="matrix" values="0 0 0 0 1 0 0 0 0 1 0 0 0 0 1 0 0 0 0.1 0"/>
<feBlend mode="normal" in2="shape" result="effect2_innerShadow_9329_404"/>
<feColorMatrix in="SourceAlpha" type="matrix" values="0 0 0 0 0 0 0 0 0 0 0 0 0 0 0 0 0 0 127 0" result="hardAlpha"/>
<feOffset/>
<feGaussianBlur stdDeviation="0.25"/>
<feComposite in2="hardAlpha" operator="arithmetic" k2="-1" k3="1"/>
<feColorMatrix type="matrix" values="0 0 0 0 1 0 0 0 0 1 0 0 0 0 1 0 0 0 0.3 0"/>
<feBlend mode="normal" in2="effect2_innerShadow_9329_404" result="effect3_innerShadow_9329_404"/>
</filter>
</defs>
</svg>
